<svg width="24" height="24" viewBox="0 0 24 24" fill="none" xmlns="http://www.w3.org/2000/svg">
    <path d="M4.75437 8.19165L2.71581 9.60603C1.15114 10.6916 1.09253 12.9851 2.5997 14.1492L4.75437 15.8134V8.19165Z"
        fill="#CDB9F9" />
    <path
        d="M4.74463 3.12028C4.74463 2.8543 4.96013 2.63867 5.22618 2.63867H9.13966C9.20106 2.63867 9.25074 2.68847 9.25074 2.7499C9.25074 4.31955 8.45643 5.78252 7.1398 6.63727L4.74463 8.19243V3.12028Z"
        fill="#CDB9F9" />
    <path
        d="M4.74463 20.8798C4.74463 21.1456 4.96013 21.3613 5.22618 21.3613H9.13966C9.20106 21.3613 9.25074 21.3115 9.25074 21.2501C9.25074 19.6805 8.45643 18.2175 7.1398 17.3628L4.74463 15.8076V20.8798Z"
        fill="#CDB9F9" />
    <path d="M19.2456 8.19165L21.2841 9.60603C22.8488 10.6916 22.9074 12.9851 21.4003 14.1492L19.2456 15.8134V8.19165Z"
        fill="#CDB9F9" />
    <path
        d="M19.2561 3.12028C19.2561 2.8543 19.0406 2.63867 18.7746 2.63867H14.8611C14.7997 2.63867 14.75 2.68847 14.75 2.7499C14.75 4.31955 15.5443 5.78252 16.8609 6.63727L19.2561 8.19243V3.12028Z"
        fill="#CDB9F9" />
    <path
        d="M19.2561 20.8798C19.2561 21.1456 19.0406 21.3613 18.7746 21.3613H14.8611C14.7997 21.3613 14.75 21.3115 14.75 21.2501C14.75 19.6805 15.5443 18.2175 16.8609 17.3628L19.2561 15.8076V20.8798Z"
        fill="#CDB9F9" />
    <path
        d="M11.5857 9.0129L8.99753 11.6011C8.77183 11.8268 8.77183 12.1927 8.99753 12.4184L11.5857 15.0066C11.8114 15.2323 12.1774 15.2323 12.4031 15.0066L14.9913 12.4184C15.217 12.1927 15.217 11.8268 14.9913 11.6011L12.4031 9.0129C12.1774 8.7872 11.8114 8.7872 11.5857 9.0129Z"
        fill="#CDB9F9" />
</svg>