<svg width="20" height="20" viewBox="0 0 20 20" fill="none" xmlns="http://www.w3.org/2000/svg">
<g clip-path="url(#clip0_3420_18348)">
<rect width="20" height="20" rx="10" fill="#16141A"/>
<path d="M10 12.3135C11.1843 12.3135 12.2622 12.4339 13.2266 12.6602C13.236 12.6624 13.2455 12.6638 13.2549 12.666C13.4347 12.7087 13.6104 12.7556 13.7822 12.8057C13.7996 12.8107 13.8167 12.8162 13.834 12.8213C14.0029 12.8715 14.1681 12.9242 14.3291 12.9814C14.3475 12.988 14.3655 12.9953 14.3838 13.002C14.4433 13.0235 14.5021 13.0458 14.5605 13.0684C14.5787 13.0754 14.5971 13.0818 14.6152 13.0889L14.7373 13.1377C14.7668 13.1498 14.796 13.1625 14.8252 13.1748C14.8494 13.185 14.8734 13.1956 14.8975 13.2061C14.9622 13.2341 15.0266 13.2617 15.0898 13.291C15.1039 13.2975 15.1179 13.304 15.1318 13.3105C15.4385 13.4546 15.7271 13.6137 15.998 13.7861C16.0191 13.7995 16.0397 13.8136 16.0605 13.8271C16.1092 13.8588 16.1576 13.8903 16.2051 13.9229C16.2277 13.9384 16.2501 13.954 16.2725 13.9697C16.319 14.0025 16.3648 14.0357 16.4102 14.0693C16.4246 14.08 16.4388 14.0908 16.4531 14.1016C16.5032 14.1393 16.553 14.177 16.6016 14.2158C16.632 14.2401 16.6616 14.2653 16.6914 14.29C16.7223 14.3156 16.753 14.3412 16.7832 14.3672C16.8151 14.3946 16.8458 14.4232 16.877 14.4512C17.3317 14.8584 17.7136 15.316 18.0166 15.8213L18.0664 15.9043L18.3135 16.6787L19.2939 19.7471L19.6406 20.834H-0.954102L-0.953125 20.833H-0.954102L1.97949 15.8281L1.9834 15.8213C3.2947 13.6342 6.05966 12.3135 10 12.3135ZM10 2.91699C12.1171 2.91699 13.833 4.63291 13.833 6.75C13.833 8.86709 12.1171 10.583 10 10.583C7.88297 10.5829 6.16699 8.86705 6.16699 6.75C6.16699 4.63295 7.88297 2.91707 10 2.91699Z" fill="#B692F4" fill-opacity="0.4"/>
</g>
<defs>
<clipPath id="clip0_3420_18348">
<rect width="20" height="20" rx="10" fill="white"/>
</clipPath>
</defs>
</svg>
