<svg width="129" height="40" viewBox="0 0 129 40" fill="none" xmlns="http://www.w3.org/2000/svg">
<path d="M99.8564 27.5581C99.8567 29.216 101.205 29.5815 102.526 29.5815C103.004 29.5815 103.483 29.5255 103.904 29.4692V31.521C103.258 31.6334 102.527 31.7173 101.824 31.7173C99.5757 31.7173 97.383 30.8464 97.3828 27.5581V18.647H99.8564V27.5581ZM71.4189 25.3647C71.4189 28.0067 72.824 29.3001 74.96 29.3003C77.1243 29.3003 78.8398 28.0069 78.8398 25.3647V16.6235H81.3125V31.2397H78.8398V29.0757H78.7832C77.8275 30.8745 76.2252 31.6899 74.1172 31.6899C71.1659 31.6899 68.9454 30.0312 68.9453 26.0962V16.6235H71.4189V25.3647ZM89.5771 16.1743C92.6971 16.1743 94.8901 17.748 95.3398 20.3901H92.6133C92.5852 19.6031 91.6296 18.3384 89.6621 18.3384C88.0601 18.3384 86.8235 19.0688 86.8232 20.3335C86.8232 21.5139 88.4812 22.0202 90.3643 22.5542C92.894 23.285 95.8457 24.1567 95.8457 26.9956C95.8456 29.8062 93.6253 31.6898 89.8311 31.6899C86.3739 31.6899 84.0966 30.1155 83.5625 26.8833H86.2891C86.2893 28.2605 87.6945 29.5815 89.8867 29.5815C91.6293 29.5815 93.0633 28.8226 93.0635 27.5298C93.0635 25.9838 91.1796 25.3931 89.0996 24.7466C86.6543 23.9877 84.04 23.1161 84.04 20.5864C84.0403 18.338 86.0922 16.1745 89.5771 16.1743ZM49.6221 11.0864C53.9506 11.0864 57.0147 13.4193 58.1953 17.8882H55.2158C54.4568 15.0214 52.77 13.3911 49.6221 13.3911C45.35 13.3913 43.1017 16.5675 43.1016 21.3735C43.1016 26.1799 45.3499 29.3567 49.6221 29.3569C52.77 29.3569 54.4568 27.7266 55.2158 24.8599H58.1953C57.0147 29.3287 53.9506 31.6616 49.6221 31.6616C43.7758 31.6614 40.2344 27.4166 40.2344 21.3735C40.2346 15.3307 43.776 11.0866 49.6221 11.0864ZM113.354 24.606C113.495 27.6416 114.957 29.4692 117.796 29.4692C119.651 29.4692 120.859 28.6258 121.478 27.2769H124.316C123.276 30.1717 120.944 31.6332 117.796 31.6333C113.523 31.6333 110.797 28.9627 110.516 24.606H113.354ZM62.4902 18.7876C63.4459 16.9888 65.3859 15.8928 67.4658 16.6235V18.7876C67.0161 18.6752 66.5663 18.6196 66.1729 18.6196C64.0366 18.6196 62.4346 20.0531 62.4346 22.4985V31.2397H59.9609V16.6235H62.4346V18.7876H62.4902ZM108.278 31.2397H105.805V10.4399H108.278V31.2397ZM117.655 16.1743C121.084 16.1744 124.345 18.3665 124.345 23.7632V24.606H113.354V22.5825H121.59C121.449 19.7156 119.623 18.3385 117.655 18.3384C115.126 18.3384 113.692 19.9122 113.354 22.5825H110.572C111.022 18.5912 113.608 16.1743 117.655 16.1743ZM103.904 18.647H99.8564V16.6235H103.904V18.647ZM99.8564 16.6235H97.3828V13.6157L99.8564 12.4917V16.6235Z" fill="white"/>
<path d="M18.8242 3.27588C21.0459 3.27588 23.1629 4.11153 24.7852 5.62842C26.1279 6.88318 27.0288 8.50572 27.3838 10.2817L27.4492 10.6099L27.1152 10.5796C26.8709 10.5571 26.6227 10.5454 26.373 10.5454C25.9785 10.5454 25.5915 10.5731 25.2129 10.6274L24.9912 10.6597L24.9355 10.4419C24.6371 9.27519 24.0053 8.20996 23.1016 7.37549C21.9325 6.29505 20.4139 5.69972 18.8252 5.69971C17.2365 5.69971 15.7187 6.29502 14.5488 7.37549C13.3856 8.45093 12.6734 9.90607 12.541 11.4722V11.4741C12.5282 11.617 12.5219 11.7661 12.5195 11.9194V12.0073C12.5195 12.1992 12.5282 12.3962 12.5459 12.5903C12.808 15.4403 14.9536 17.732 17.7324 18.2173C17.8459 17.5383 18.0018 16.8564 18.2725 16.2007L18.3916 15.9263C19.0074 14.5651 19.9641 13.3825 21.1729 12.4917L21.4023 12.3276C22.5629 11.5279 23.8966 11.0255 25.293 10.8569C25.4189 10.8411 25.5432 10.8286 25.667 10.8188L26.0059 10.7993C26.12 10.795 26.2348 10.7925 26.3486 10.7925H26.4492L26.7158 10.7993C26.8045 10.8031 26.8925 10.8088 26.9795 10.8149H26.9805C27.0822 10.8223 27.1838 10.8316 27.2861 10.8423H27.2871C29.3658 11.0647 31.2888 12.0232 32.7256 13.561C34.2424 15.1833 35.0781 17.3004 35.0781 19.522V19.5532L35.0762 19.5591C35.0678 21.7685 34.2348 23.8727 32.7256 25.4868C31.4708 26.8288 29.8475 27.7294 28.0723 28.0845L27.7451 28.1499L27.7744 27.8169C27.7962 27.5719 27.8076 27.3236 27.8076 27.0737C27.8076 26.6793 27.7799 26.292 27.7256 25.9136L27.6934 25.6909L27.9111 25.6362C29.0784 25.3387 30.1429 24.7063 30.9775 23.8032C32.0582 22.6333 32.6533 21.1147 32.6533 19.5259C32.6532 17.9372 32.0581 16.4194 30.9775 15.2495C29.902 14.0862 28.4476 13.3732 26.8809 13.2417H26.8799C26.8084 13.2353 26.7352 13.2305 26.6611 13.2271L26.4346 13.2202H26.3467C26.1546 13.2202 25.9569 13.2288 25.7617 13.2466L25.7627 13.2476C24.0664 13.4045 22.4791 14.2597 21.416 15.5913C20.8876 16.2527 20.4989 17.0144 20.2783 17.8296C20.2254 18.0256 20.1825 18.2221 20.1465 18.4194C20.4658 18.4645 20.7804 18.5269 21.0938 18.6108C21.4523 18.7071 21.8053 18.8268 22.1484 18.9683C22.2248 18.9995 22.3016 19.0319 22.3779 19.0659L22.6348 19.1851C23.9066 19.8019 25.014 20.7222 25.8584 21.8677C26.7528 23.0806 27.3148 24.497 27.4932 25.9868L27.5312 26.3618L27.5508 26.7017C27.5551 26.8155 27.5576 26.9295 27.5576 27.0425V27.1763L27.5527 27.1782C27.5499 27.3452 27.544 27.5118 27.5332 27.6753V27.6772C27.5258 27.7789 27.5175 27.8806 27.5068 27.9829L27.5059 27.9839C27.2835 30.0636 26.3251 31.9874 24.7861 33.4243L24.7852 33.4233C23.1629 34.94 21.0467 35.7759 18.8252 35.7759C16.6035 35.7759 14.4866 34.9402 12.8643 33.4233C11.524 32.1703 10.6226 30.5484 10.2676 28.7739L10.2021 28.4468L10.5352 28.4761C10.78 28.4978 11.0277 28.5093 11.2773 28.5093C11.6718 28.5093 12.0591 28.4815 12.4385 28.4272L12.6611 28.396L12.7158 28.6128C13.0142 29.7787 13.6465 30.8425 14.5488 31.6763C15.7187 32.7567 17.2365 33.3521 18.8252 33.3521C20.4139 33.352 21.9325 32.7567 23.1016 31.6763C24.2656 30.6008 24.9778 29.1464 25.1094 27.5796V27.5776C25.1222 27.4354 25.1285 27.2878 25.1309 27.1353V27.0444C25.1309 26.8533 25.1215 26.6561 25.1045 26.4604L25.0527 26.0444C24.7238 23.9814 23.3404 22.1636 21.4277 21.2974C20.9369 21.0748 20.4098 20.9254 19.8701 20.8306C19.8016 21.3934 19.7006 21.9638 19.5049 22.5308L19.3838 22.8501C18.7768 24.326 17.7737 25.6089 16.4844 26.5591C15.2706 27.4542 13.8529 28.0142 12.3623 28.1938L12.3633 28.1948L11.9902 28.2319C11.8772 28.241 11.7634 28.2481 11.6494 28.2524L11.3086 28.2583H11.2041C11.0275 28.2558 10.8504 28.2482 10.6768 28.2358C10.5741 28.2284 10.4719 28.2201 10.3701 28.2095H10.3691C8.29031 27.9871 6.36727 27.0277 4.92969 25.4897C3.41393 23.8645 2.57823 21.7475 2.57812 19.5259C2.57812 17.3042 3.41381 15.1872 4.93066 13.5649C6.16223 12.2469 7.74958 11.355 9.4873 10.9858V10.9849C9.5158 10.9787 9.55245 10.9714 9.59082 10.9653L9.90723 10.9155L9.87891 11.2339C9.85713 11.4789 9.84473 11.7272 9.84473 11.9771C9.84474 12.3715 9.87345 12.7587 9.92773 13.1372L9.95898 13.3589L9.74219 13.4146C8.57624 13.7137 7.51261 14.3454 6.67969 15.2476V15.2485C5.59922 16.4176 5.00391 17.9361 5.00391 19.5249C5.00396 21.1136 5.59908 22.6314 6.67969 23.8013C7.75439 24.9645 9.20955 25.6776 10.7764 25.8091H10.7773C10.9197 25.822 11.0671 25.8282 11.2197 25.8306H11.3105C11.5025 25.8306 11.6995 25.8209 11.8945 25.8032L12.1953 25.7681C13.6952 25.555 15.09 24.7979 16.084 23.6489C16.8775 22.7309 17.1946 21.6834 17.3906 20.5601C16.7607 20.4748 16.1306 20.3416 15.501 20.0825C14.0251 19.4755 12.7421 18.4724 11.792 17.1831C10.897 15.9703 10.336 14.5522 10.1562 13.062L10.1191 12.688V12.687C10.1018 12.4634 10.0938 12.2347 10.0938 12.0073V11.9067L10.1006 11.6401C10.1042 11.5514 10.1091 11.4631 10.1152 11.3755V11.3745C10.1227 11.2708 10.1331 11.1677 10.1436 11.0669C10.3652 8.98814 11.3236 7.06591 12.8613 5.62842L12.8623 5.62744C14.3855 4.20489 16.3448 3.38121 18.415 3.28564L18.8242 3.27588Z" fill="white"/>
</svg>
