<svg width="60" height="60" viewBox="0 0 60 60" fill="none" xmlns="http://www.w3.org/2000/svg">
<rect width="60" height="60" fill="none"/>
<path d="M40.5921 39.3983C40.5921 39.4403 40.5921 39.4833 40.5921 39.5253C40.5891 39.7403 40.5801 39.9553 40.5661 40.1662C40.5571 40.2902 40.5461 40.4142 40.5331 40.5392C40.2631 43.0642 39.0991 45.3991 37.2302 47.1441C35.2602 48.986 32.6903 50 29.9924 50C27.2944 50 24.7245 48.986 22.7545 47.1441C21.1266 45.6221 20.0326 43.6532 19.6016 41.4992C19.9166 41.5272 20.2356 41.5422 20.5576 41.5422C21.0656 41.5422 21.5646 41.5062 22.0536 41.4362C22.4415 42.9522 23.2625 44.3341 24.4345 45.4171C25.9545 46.8211 27.9274 47.5951 29.9924 47.5951C32.0573 47.5951 34.0313 46.8211 35.5502 45.4171C37.0622 44.0201 37.9882 42.1302 38.1592 40.0932C38.1762 39.9053 38.1842 39.7123 38.1872 39.5163C38.1872 39.4773 38.1872 39.4383 38.1872 39.3983C38.1872 39.1493 38.1752 38.8933 38.1532 38.6403C37.8952 35.7364 36.0262 33.1304 33.3743 31.9295C32.4833 31.5255 31.5093 31.3095 30.5383 31.2115C28.9504 31.0495 27.4584 31.0245 25.9565 30.4065C24.1645 29.6695 22.6065 28.4515 21.4526 26.8856C20.3656 25.4126 19.6846 23.6907 19.4666 21.8807C19.4476 21.7297 19.4336 21.5797 19.4216 21.4277C19.4006 21.1567 19.3906 20.8787 19.3906 20.6017C19.3906 20.5607 19.3906 20.5197 19.3906 20.4787C19.3926 20.2627 19.4016 20.0467 19.4166 19.8338C19.4256 19.7088 19.4376 19.5848 19.4506 19.4598C19.7196 16.9358 20.8836 14.6019 22.7515 12.8559C24.6015 11.128 26.9804 10.128 29.4944 10.012C29.6594 10.004 29.8254 10 29.9914 10C32.6893 10 35.2592 11.014 37.2292 12.8559C38.8601 14.3799 39.9531 16.3498 40.3841 18.5058C40.0691 18.4768 39.7491 18.4618 39.4271 18.4618C38.9191 18.4618 38.4211 18.4978 37.9332 18.5678C37.5452 17.0508 36.7242 15.6669 35.5502 14.5829C34.0313 13.1789 32.0573 12.4049 29.9924 12.4049C27.9274 12.4049 25.9545 13.1789 24.4345 14.5829C22.9235 15.9799 21.9976 17.8708 21.8256 19.9068C21.8086 20.0957 21.8006 20.2907 21.7976 20.4877C21.7976 20.5257 21.7976 20.5637 21.7976 20.6017C21.7976 20.8517 21.8096 21.1077 21.8326 21.3597C22.1826 25.1646 25.1145 28.2055 28.8694 28.7205C29.5154 28.8095 30.1814 28.8085 30.8363 28.8475C31.4913 28.8865 32.1203 28.9905 32.7473 29.1585C33.1833 29.2755 33.6123 29.4205 34.0293 29.5925C34.1223 29.6305 34.2143 29.6695 34.3063 29.7105C35.9812 30.4565 37.4382 31.6285 38.5321 33.1124C39.6191 34.5864 40.3011 36.3073 40.5171 38.1173C40.5371 38.2683 40.5511 38.4183 40.5631 38.5703C40.5851 38.8423 40.5951 39.1213 40.5951 39.3963L40.5921 39.3983Z" fill="black" stroke="black" stroke-width="0.625"/>
<path d="M49.999 29.9992C49.999 32.6972 48.985 35.2671 47.1431 37.2371C45.6191 38.867 43.6492 39.96 41.4942 40.391C41.5222 40.076 41.5372 39.757 41.5372 39.435C41.5372 38.927 41.5012 38.428 41.4312 37.94C42.9492 37.5531 44.3321 36.7311 45.4161 35.5581C46.8201 34.0381 47.5941 32.0652 47.5941 30.0002C47.5941 27.9353 46.8201 25.9623 45.4161 24.4424C44.0192 22.9314 42.1292 22.0044 40.0922 21.8334C39.9033 21.8164 39.7093 21.8084 39.5123 21.8054C39.4743 21.8054 39.4363 21.8054 39.3983 21.8054C39.1483 21.8054 38.8923 21.8174 38.6393 21.8404C36.4343 22.0444 34.3724 23.1554 32.9904 24.8864C32.3034 25.7463 31.7985 26.7373 31.5115 27.7983C30.9505 29.8762 31.2465 31.9992 30.4055 34.0361C29.6685 35.8281 28.4505 37.3861 26.8846 38.54C25.4106 39.627 23.6897 40.308 21.8797 40.526C21.7297 40.545 21.5797 40.559 21.4277 40.571C21.1547 40.593 20.8767 40.603 20.6007 40.603C20.5587 40.603 20.5157 40.603 20.4737 40.603C20.2587 40.6 20.0437 40.591 19.8328 40.576C19.7078 40.567 19.5838 40.556 19.4598 40.543C16.9358 40.273 14.6009 39.109 12.8549 37.2411C11.014 35.2671 10 32.6972 10 29.9992C10 27.3013 11.014 24.7314 12.8559 22.7614C14.3519 21.1605 16.2798 20.0775 18.3898 19.6295C18.4268 19.6215 18.4638 19.6135 18.5018 19.6075C18.4738 19.9225 18.4588 20.2415 18.4588 20.5635C18.4588 21.0715 18.4948 21.5705 18.5648 22.0584C17.0488 22.4474 15.6669 23.2684 14.5849 24.4404C13.1809 25.9593 12.4069 27.9333 12.4069 29.9982C12.4069 32.0632 13.1809 34.0361 14.5849 35.5561C15.9809 37.0671 17.8718 37.994 19.9088 38.165C20.0967 38.182 20.2887 38.19 20.4847 38.193C20.5237 38.193 20.5627 38.193 20.6027 38.193C20.8527 38.193 21.1087 38.181 21.3617 38.158C23.4587 37.964 25.4286 36.9511 26.8066 35.3581C29.1585 32.6372 28.3075 29.0803 29.5945 25.9623C30.3325 24.1694 31.5505 22.6124 33.1164 21.4585C34.5894 20.3715 36.3113 19.6905 38.1203 19.4725C38.2713 19.4535 38.4213 19.4395 38.5733 19.4275C38.8443 19.4055 39.1233 19.3955 39.4003 19.3955C39.4413 19.3955 39.4823 19.3955 39.5233 19.3955C39.7393 19.3975 39.9552 19.4075 40.1672 19.4225C40.2912 19.4315 40.4152 19.4425 40.5402 19.4555C43.0642 19.7255 45.3991 20.8895 47.1441 22.7574C48.986 24.7274 50 27.2973 50 29.9952L49.999 29.9992Z" fill="black" stroke="black" stroke-width="0.625"/>
</svg>
