<svg viewBox="0 0 14 14" fill="none" xmlns="http://www.w3.org/2000/svg">
    <path
        d="M12.6 6.6C12.6 9.91371 9.91371 12.6 6.6 12.6M12.6 6.6C12.6 3.28629 9.91371 0.6 6.6 0.6M12.6 6.6C12.6 7.70457 9.91371 8.6 6.6 8.6C3.28629 8.6 0.6 7.70457 0.6 6.6M12.6 6.6C12.6 5.49543 9.91371 4.6 6.6 4.6C3.28629 4.6 0.6 5.49543 0.6 6.6M6.6 12.6C3.28629 12.6 0.6 9.91371 0.6 6.6M6.6 12.6C5.49543 12.6 4.6 9.91371 4.6 6.6C4.6 3.28629 5.49543 0.6 6.6 0.6M6.6 12.6C7.70457 12.6 8.6 9.91371 8.6 6.6C8.6 3.28629 7.70457 0.6 6.6 0.6M0.6 6.6C0.6 3.28629 3.28629 0.6 6.6 0.6"
        stroke="currentColor" stroke-width="1.2" stroke-linecap="round" stroke-linejoin="round" />
</svg>