<svg preserveAspectRatio="none" width="100%" height="100%" overflow="visible" style="display: block;" viewBox="0 0 474 305" fill="none" xmlns="http://www.w3.org/2000/svg">
<g id="Group 2085662666">
<circle id="Ellipse 3260" cx="152.5" cy="152.5" r="152" stroke="var(--stroke-0, #CDB9F9)" stroke-opacity="0.12"/>
<circle id="Ellipse 3261" cx="168.142" cy="152.5" r="152" stroke="var(--stroke-0, #CDB9F9)" stroke-opacity="0.12"/>
<circle id="Ellipse 3262" cx="182.218" cy="152.5" r="152" stroke="var(--stroke-0, #CDB9F9)" stroke-opacity="0.12"/>
<circle id="Ellipse 3263" cx="197.859" cy="152.5" r="152" stroke="var(--stroke-0, #CDB9F9)" stroke-opacity="0.12"/>
<path id="Ellipse 3264" d="M214.282 0.5C298.664 0.50009 367.065 68.5552 367.065 152.5C367.065 236.445 298.664 304.5 214.282 304.5C129.901 304.5 61.5002 236.445 61.5002 152.5C61.5002 68.5551 129.901 0.5 214.282 0.5Z" stroke="var(--stroke-0, #CDB9F9)" stroke-opacity="0.12"/>
<circle id="Ellipse 3265" cx="229.142" cy="152.5" r="152" stroke="var(--stroke-0, #CDB9F9)" stroke-opacity="0.12"/>
<circle id="Ellipse 3266" cx="244.782" cy="152.5" r="152" stroke="var(--stroke-0, #CDB9F9)" stroke-opacity="0.12"/>
<path id="Ellipse 3267" d="M259.641 0.5C344.023 0.50009 412.424 68.5552 412.424 152.5C412.424 236.445 344.023 304.5 259.641 304.5C175.26 304.5 106.859 236.445 106.859 152.5C106.859 68.5551 175.26 0.5 259.641 0.5Z" stroke="var(--stroke-0, #CDB9F9)" stroke-opacity="0.12"/>
<circle id="Ellipse 3268" cx="276.065" cy="152.5" r="152" stroke="var(--stroke-0, #CDB9F9)" stroke-opacity="0.12"/>
<circle id="Ellipse 3269" cx="291.706" cy="152.5" r="152" stroke="var(--stroke-0, #CDB9F9)" stroke-opacity="0.12"/>
<circle id="Ellipse 3270" cx="305.782" cy="152.5" r="152" stroke="var(--stroke-0, #CDB9F9)" stroke-opacity="0.12"/>
<circle id="Ellipse 3271" cx="321.424" cy="152.5" r="152" stroke="var(--stroke-0, #CDB9F9)" stroke-opacity="0.12"/>
</g>
</svg>
