<svg width="16" height="16" viewBox="0 0 16 16" fill="none" xmlns="http://www.w3.org/2000/svg">
<g clip-path="url(#clip0_828_6085)">
<path d="M7.99837 11.9984C5.78923 11.9984 3.99837 10.2075 3.99837 7.99837C3.99837 5.78923 5.78923 3.99837 7.99837 3.99837C10.2075 3.99837 11.9984 5.78923 11.9984 7.99837C11.9984 10.2075 10.2075 11.9984 7.99837 11.9984ZM7.33171 1.33171C7.33171 0.963516 7.63018 0.665039 7.99837 0.665039C8.36656 0.665039 8.66504 0.963516 8.66504 1.33171V1.99837C8.66504 2.36656 8.36656 2.66504 7.99837 2.66504C7.63018 2.66504 7.33171 2.36656 7.33171 1.99837V1.33171ZM7.33171 13.9984C7.33171 13.6302 7.63018 13.3317 7.99837 13.3317C8.36656 13.3317 8.66504 13.6302 8.66504 13.9984V14.665C8.66504 15.0332 8.36656 15.3317 7.99837 15.3317C7.63018 15.3317 7.33171 15.0332 7.33171 14.665V13.9984ZM2.81292 3.75573C2.55257 3.49538 2.55257 3.07327 2.81292 2.81292C3.07327 2.55257 3.49538 2.55257 3.75573 2.81292L4.22714 3.28433C4.48748 3.54468 4.48748 3.96679 4.22714 4.22714C3.96679 4.48748 3.54468 4.48748 3.28433 4.22714L2.81292 3.75573ZM11.7696 12.7125C11.5092 12.4521 11.5092 12.03 11.7696 11.7696C12.03 11.5092 12.4521 11.5092 12.7125 11.7696L13.1838 12.241C13.4442 12.5014 13.4442 12.9235 13.1838 13.1838C12.9235 13.4442 12.5014 13.4442 12.241 13.1838L11.7696 12.7125ZM12.241 2.81291C12.5014 2.55257 12.9235 2.55257 13.1838 2.81292C13.4442 3.07327 13.4442 3.49538 13.1838 3.75573L12.7124 4.22714C12.4521 4.48749 12.03 4.48749 11.7696 4.22715C11.5093 3.9668 11.5092 3.54466 11.7696 3.2843L12.241 2.81291ZM3.2843 11.7696C3.54466 11.5092 3.9668 11.5093 4.22715 11.7696C4.48749 12.03 4.48749 12.4521 4.22714 12.7124L3.75573 13.1838C3.49538 13.4442 3.07327 13.4442 2.81292 13.1838C2.55257 12.9235 2.55257 12.5014 2.81291 12.241L3.2843 11.7696ZM14.665 7.33171C15.0332 7.33171 15.3317 7.63018 15.3317 7.99837C15.3317 8.36656 15.0332 8.66504 14.665 8.66504H13.9984C13.6302 8.66504 13.3317 8.36656 13.3317 7.99837C13.3317 7.63018 13.6302 7.33171 13.9984 7.33171H14.665ZM1.99837 7.33171C2.36656 7.33171 2.66504 7.63018 2.66504 7.99837C2.66504 8.36656 2.36656 8.66504 1.99837 8.66504H1.33171C0.963516 8.66504 0.665039 8.36656 0.665039 7.99837C0.665039 7.63018 0.963516 7.33171 1.33171 7.33171H1.99837Z" fill="white"/>
</g>
<defs>
<clipPath id="clip0_828_6085">
<rect width="16" height="16" fill="white"/>
</clipPath>
</defs>
</svg>
