<svg xmlns="http://www.w3.org/2000/svg" width="20" height="20" viewBox="0 0 20 20" fill="none">
    <path
        d="M2.93311 16.1831V4.87647C2.93311 3.88705 2.93311 3.39233 3.12566 3.01442C3.29504 2.682 3.5653 2.41174 3.89772 2.24236C4.27563 2.0498 4.77035 2.0498 5.75977 2.0498H14.2398C15.2292 2.0498 15.7239 2.0498 16.1018 2.24236C16.4342 2.41174 16.7045 2.682 16.8739 3.01442C17.0664 3.39233 17.0664 3.88705 17.0664 4.87647V14.4165H4.69977C3.72407 14.4165 2.93311 15.2074 2.93311 16.1831ZM2.93311 16.1831C2.93311 17.1588 3.72407 17.9498 4.69977 17.9498H17.0664M7.34977 5.58314H12.6498M7.34977 9.11647H12.6498M16.1831 14.4165V17.9498"
        stroke="white" stroke-width="1.6" stroke-linecap="round" stroke-linejoin="round" />
</svg>