<svg xmlns="http://www.w3.org/2000/svg" width="18" height="17" viewBox="0 0 18 17" fill="none">
    <path
        d="M11.2221 13.9831C11.903 14.1813 12.623 14.2875 13.3679 14.2875C14.5767 14.2875 15.7201 14.0077 16.7369 13.5092C16.7388 13.4623 16.7398 13.4152 16.7398 13.3679C16.7398 11.5056 15.2301 9.99598 13.3679 9.99598C12.2087 9.99598 11.1862 10.5809 10.5793 11.4716M11.2221 13.9831V13.981C11.2221 13.0713 10.989 12.216 10.5793 11.4716M11.2221 13.9831C11.2221 14.0122 11.2219 14.0413 11.2214 14.0704C9.69954 14.9866 7.91681 15.5137 6.01097 15.5137C4.10514 15.5137 2.3224 14.9866 0.800557 14.0704C0.800057 14.0406 0.799805 14.0108 0.799805 13.981C0.799805 11.1029 3.13292 8.76982 6.01097 8.76982C7.97929 8.76982 9.69274 9.8611 10.5793 11.4716M8.76982 3.55866C8.76982 5.08233 7.53464 6.31751 6.01097 6.31751C4.4873 6.31751 3.25212 5.08233 3.25212 3.55866C3.25212 2.03499 4.4873 0.799805 6.01097 0.799805C7.53464 0.799805 8.76982 2.03499 8.76982 3.55866ZM15.5137 5.39789C15.5137 6.58297 14.553 7.54367 13.3679 7.54367C12.1828 7.54367 11.2221 6.58297 11.2221 5.39789C11.2221 4.21281 12.1828 3.25212 13.3679 3.25212C14.553 3.25212 15.5137 4.21281 15.5137 5.39789Z"
        stroke="white" stroke-width="1.6" stroke-linecap="round" stroke-linejoin="round" />
</svg>