<svg xmlns="http://www.w3.org/2000/svg" width="24" height="24" viewBox="0 0 24 24" fill="none">
    <path
        d="M16.6523 17.2304C15.5872 15.8247 13.8996 14.9167 12 14.9167C10.1004 14.9167 8.4128 15.8247 7.34769 17.2304M16.6523 17.2304C18.0927 15.9483 19 14.0801 19 12C19 8.13401 15.866 5 12 5C8.13401 5 5 8.13401 5 12C5 14.0801 5.90728 15.9483 7.34769 17.2304M16.6523 17.2304C15.4156 18.3312 13.7859 19 12 19C10.2141 19 8.58439 18.3312 7.34769 17.2304M14.3333 10.25C14.3333 11.5387 13.2887 12.5833 12 12.5833C10.7113 12.5833 9.66667 11.5387 9.66667 10.25C9.66667 8.96134 10.7113 7.91667 12 7.91667C13.2887 7.91667 14.3333 8.96134 14.3333 10.25Z"
        stroke="black" stroke-width="2" stroke-linecap="round" stroke-linejoin="round" />
</svg>