<svg width="108" height="39" viewBox="0 0 108 39" fill="none" xmlns="http://www.w3.org/2000/svg">
<path d="M49.9482 16.3557C49.5828 14.5005 48.2899 13.1795 45.8445 13.1795C43.5677 13.1795 41.6564 14.1351 41.6564 16.3838C41.6564 21.1903 53.4618 17.9859 53.4618 25.2378C53.4618 28.9481 50.5104 31.4497 45.6758 31.4497C41.9093 31.4497 38.3677 29.3697 38.1709 24.9005H40.9536C41.0942 27.1773 43.0899 29.1449 46.1255 29.1449C48.5709 29.1449 50.7072 27.9362 50.7072 25.9405C50.7072 20.347 38.8174 23.6076 38.8174 16.7211C38.8174 13.7416 41.5158 10.8746 45.732 10.8746C49.2174 10.8746 52.1407 12.7297 52.6747 16.3557H49.9482ZM55.0514 22.3427C55.5011 18.3514 58.0871 15.9341 62.1346 15.9341C65.5638 15.9341 68.8244 18.1265 68.8244 23.5232V24.3665H57.8341V22.3427H66.0698C65.9292 19.4757 64.1022 18.0984 62.1346 18.0984C59.6049 18.0984 58.1714 19.6724 57.8341 22.3427H55.0514ZM57.8341 24.3665C57.9746 27.4022 59.4363 29.2292 62.2752 29.2292C64.1303 29.2292 65.339 28.3859 65.9573 27.0368H68.7963C67.7563 29.9319 65.4233 31.3935 62.2752 31.3935C58.0028 31.3935 55.2763 28.7232 54.9952 24.3665H57.8341ZM70.6281 16.3838V13.3762L73.1016 12.2519V16.3838H70.6281ZM77.1492 18.4076V16.3838H73.1016V27.3178C73.1016 28.9762 74.4508 29.3416 75.7719 29.3416C76.2497 29.3416 76.7276 29.2854 77.1492 29.2292V31.2811C76.5027 31.3935 75.7719 31.4778 75.0692 31.4778C72.8206 31.4778 70.6281 30.6065 70.6281 27.3178V18.4076H77.1492ZM78.5687 16.3838V13.3762L81.0422 12.2519V16.3838H78.5687ZM85.0897 18.4076V16.3838H81.0422V27.3178C81.0422 28.9762 82.3914 29.3416 83.7124 29.3416C84.1903 29.3416 84.6681 29.2854 85.0897 29.2292V31.2811C84.4433 31.3935 83.7124 31.4778 83.0097 31.4778C80.7611 31.4778 78.5687 30.6065 78.5687 27.3178V18.4076H85.0897ZM89.4625 31H86.989V10.2H89.4625V31ZM91.7544 22.3427C92.2042 18.3514 94.7901 15.9341 98.8377 15.9341C102.267 15.9341 105.527 18.1265 105.527 23.5232V24.3665H94.5371V22.3427H102.773C102.632 19.4757 100.805 18.0984 98.8377 18.0984C96.3079 18.0984 94.8744 19.6724 94.5371 22.3427H91.7544ZM94.5371 24.3665C94.6777 27.4022 96.1393 29.2292 98.9782 29.2292C100.833 29.2292 102.042 28.3859 102.66 27.0368H105.499C104.459 29.9319 102.126 31.3935 98.9782 31.3935C94.7058 31.3935 91.9793 28.7232 91.6982 24.3665H94.5371Z" fill="white"/>
<path d="M24.7268 26.8038C24.7268 26.8374 24.7268 26.8718 24.7268 26.9054C24.7244 27.0774 24.7172 27.2494 24.706 27.4182C24.6988 27.5174 24.69 27.6165 24.6796 27.7165C24.4636 29.7365 23.5324 31.6045 22.0373 33.0004C20.4613 34.474 18.4054 35.2852 16.247 35.2852C14.0887 35.2852 12.0327 34.474 10.4568 33.0004C9.15439 31.7828 8.27921 30.2077 7.93442 28.4845C8.18641 28.5069 8.44161 28.5189 8.6992 28.5189C9.10559 28.5189 9.50478 28.4901 9.89597 28.4341C10.2064 29.6469 10.8631 30.7525 11.8007 31.6188C13.0167 32.742 14.5951 33.3612 16.247 33.3612C17.899 33.3612 19.4781 32.742 20.6933 31.6188C21.9029 30.5013 22.6437 28.9893 22.7804 27.3598C22.794 27.2094 22.8004 27.055 22.8028 26.8982C22.8028 26.867 22.8028 26.8358 22.8028 26.8038C22.8028 26.6046 22.7932 26.3998 22.7756 26.1974C22.5693 23.8742 21.0741 21.7895 18.9525 20.8287C18.2398 20.5055 17.4606 20.3327 16.6838 20.2543C15.4134 20.1247 14.2199 20.1047 13.0183 19.6103C11.5847 19.0208 10.3384 18.0464 9.41518 16.7936C8.54561 15.6152 8.00082 14.2377 7.82642 12.7897C7.81122 12.6689 7.80002 12.5489 7.79042 12.4273C7.77363 12.2105 7.76562 11.9881 7.76562 11.7665C7.76562 11.7337 7.76562 11.7009 7.76562 11.6681C7.76722 11.4954 7.77442 11.3226 7.78642 11.1522C7.79362 11.0522 7.80322 10.953 7.81362 10.853C8.02882 8.83382 8.96 6.96666 10.4544 5.5699C11.9343 4.18753 13.8375 3.38755 15.8486 3.29476C15.9806 3.28836 16.1134 3.28516 16.2462 3.28516C18.4046 3.28516 20.4605 4.09634 22.0365 5.5699C23.3412 6.78907 24.2156 8.36503 24.5604 10.0898C24.3084 10.0666 24.0524 10.0546 23.7948 10.0546C23.3884 10.0546 22.99 10.0834 22.5997 10.1394C22.2893 8.92582 21.6325 7.81864 20.6933 6.95146C19.4781 5.82829 17.899 5.20911 16.247 5.20911C14.5951 5.20911 13.0167 5.82829 11.8007 6.95146C10.592 8.06904 9.85117 9.5818 9.71358 11.2106C9.69998 11.3618 9.69358 11.5178 9.69118 11.6753C9.69118 11.7057 9.69118 11.7361 9.69118 11.7665C9.69118 11.9665 9.70078 12.1713 9.71918 12.3729C9.99917 15.4169 12.3447 17.8496 15.3486 18.2616C15.8654 18.3328 16.3982 18.332 16.9222 18.3632C17.4462 18.3944 17.9494 18.4776 18.451 18.612C18.7997 18.7056 19.1429 18.8216 19.4765 18.9592C19.5509 18.9896 19.6245 19.0208 19.6981 19.0536C21.0381 19.6503 22.2037 20.5879 23.0788 21.7751C23.9484 22.9543 24.494 24.331 24.6668 25.779C24.6828 25.8998 24.694 26.0198 24.7036 26.1414C24.7212 26.359 24.7292 26.5822 24.7292 26.8022L24.7268 26.8038Z" fill="white" stroke="white" stroke-width="0.5"/>
<path d="M32.2492 19.2857C32.2492 21.4441 31.438 23.5 29.9645 25.076C28.7453 26.3799 27.1693 27.2543 25.4454 27.5991C25.4678 27.3471 25.4798 27.0919 25.4798 26.8343C25.4798 26.4279 25.451 26.0288 25.395 25.6384C26.6093 25.3288 27.7157 24.6712 28.5829 23.7328C29.7061 22.5168 30.3252 20.9385 30.3252 19.2865C30.3252 17.6346 29.7061 16.0562 28.5829 14.8402C27.4653 13.6315 25.9534 12.8899 24.3238 12.7531C24.1726 12.7395 24.0174 12.7331 23.8598 12.7307C23.8294 12.7307 23.799 12.7307 23.7686 12.7307C23.5686 12.7307 23.3638 12.7403 23.1614 12.7587C21.3975 12.9219 19.7479 13.8107 18.6423 15.1954C18.0928 15.8834 17.6888 16.6762 17.4592 17.525C17.0104 19.1873 17.2472 20.8857 16.5744 22.5152C15.9848 23.9488 15.0104 25.1952 13.7577 26.1184C12.5785 26.9879 11.2017 27.5327 9.75376 27.7071C9.63377 27.7223 9.51377 27.7335 9.39217 27.7431C9.17378 27.7607 8.95138 27.7687 8.73059 27.7687C8.69699 27.7687 8.66259 27.7687 8.62899 27.7687C8.457 27.7663 8.285 27.7591 8.1162 27.7471C8.01621 27.7399 7.91701 27.7311 7.81781 27.7207C5.79866 27.5047 3.93071 26.5735 2.53394 25.0792C1.06118 23.5 0.25 21.4441 0.25 19.2857C0.25 17.1274 1.06118 15.0714 2.53474 13.4955C3.73151 12.2147 5.27387 11.3483 6.96183 10.9899C6.99143 10.9835 7.02103 10.9771 7.05143 10.9723C7.02903 11.2243 7.01703 11.4795 7.01703 11.7371C7.01703 12.1435 7.04583 12.5427 7.10183 12.9331C5.88906 13.2443 4.78349 13.9011 3.91791 14.8386C2.79474 16.0538 2.17555 17.633 2.17555 19.2849C2.17555 20.9369 2.79474 22.5152 3.91791 23.7312C5.03468 24.94 6.54744 25.6816 8.177 25.8184C8.3274 25.832 8.48099 25.8384 8.63779 25.8408C8.66899 25.8408 8.70019 25.8408 8.73219 25.8408C8.93218 25.8408 9.13698 25.8312 9.33937 25.8128C11.0169 25.6576 12.5929 24.8472 13.6953 23.5728C15.5768 21.3961 14.896 18.5505 15.9256 16.0562C16.516 14.6218 17.4904 13.3763 18.7431 12.4531C19.9215 11.5835 21.2991 11.0387 22.7462 10.8643C22.867 10.8491 22.987 10.8379 23.1086 10.8283C23.3254 10.8107 23.5486 10.8027 23.7702 10.8027C23.803 10.8027 23.8358 10.8027 23.8686 10.8027C24.0414 10.8043 24.2142 10.8123 24.3838 10.8243C24.483 10.8315 24.5822 10.8403 24.6822 10.8507C26.7013 11.0667 28.5693 11.9979 29.9653 13.4923C31.4388 15.0682 32.25 17.1242 32.25 19.2825L32.2492 19.2857Z" fill="white" stroke="white" stroke-width="0.5"/>
</svg>
