<svg width="131" height="48" viewBox="0 0 131 48" fill="none" xmlns="http://www.w3.org/2000/svg">
<path d="M60.5186 19.2578C60.0759 17.0103 58.5094 15.4097 55.5467 15.4097C52.7883 15.4097 50.4726 16.5676 50.4726 19.2919C50.4726 25.1151 64.7753 21.233 64.7753 30.0189C64.7753 34.5141 61.1997 37.5449 55.3424 37.5449C50.7791 37.5449 46.4883 35.0249 46.2499 29.6103H49.6213C49.7915 32.3686 52.2094 34.7524 55.8872 34.7524C58.8499 34.7524 61.438 33.2881 61.438 30.8703C61.438 24.0935 47.0332 28.0438 47.0332 19.7005C47.0332 16.0908 50.3024 12.6173 55.4105 12.6173C59.6332 12.6173 63.1748 14.8649 63.8218 19.2578H60.5186ZM66.7012 26.5114C67.2461 21.6757 70.3791 18.747 75.2829 18.747C79.4375 18.747 83.3877 21.4032 83.3877 27.9416V28.9632H70.0726V26.5114H80.0504C79.8802 23.0378 77.6666 21.3692 75.2829 21.3692C72.218 21.3692 70.4812 23.2762 70.0726 26.5114H66.7012ZM70.0726 28.9632C70.2429 32.6411 72.0137 34.8546 75.4531 34.8546C77.7007 34.8546 79.165 33.833 79.9142 32.1984H83.3537C82.0937 35.7059 79.2672 37.4768 75.4531 37.4768C70.2769 37.4768 66.9737 34.2416 66.6331 28.9632H70.0726ZM85.573 19.2919V15.6481L88.5698 14.2859V19.2919H85.573ZM93.4736 21.7438V19.2919H88.5698V32.5389C88.5698 34.5481 90.2044 34.9908 91.8049 34.9908C92.3839 34.9908 92.9628 34.9227 93.4736 34.8546V37.3405C92.6903 37.4768 91.8049 37.5789 90.9536 37.5789C88.2293 37.5789 85.573 36.5232 85.573 32.5389V21.7438H93.4736ZM95.1933 19.2919V15.6481L98.1901 14.2859V19.2919H95.1933ZM103.094 21.7438V19.2919H98.1901V32.5389C98.1901 34.5481 99.8247 34.9908 101.425 34.9908C102.004 34.9908 102.583 34.9227 103.094 34.8546V37.3405C102.311 37.4768 101.425 37.5789 100.574 37.5789C97.8495 37.5789 95.1933 36.5232 95.1933 32.5389V21.7438H103.094ZM108.392 37H105.395V11.8H108.392V37ZM111.168 26.5114C111.713 21.6757 114.846 18.747 119.75 18.747C123.905 18.747 127.855 21.4032 127.855 27.9416V28.9632H114.54V26.5114H124.518C124.347 23.0378 122.134 21.3692 119.75 21.3692C116.685 21.3692 114.948 23.2762 114.54 26.5114H111.168ZM114.54 28.9632C114.71 32.6411 116.481 34.8546 119.92 34.8546C122.168 34.8546 123.632 33.833 124.381 32.1984H127.821C126.561 35.7059 123.734 37.4768 119.92 37.4768C114.744 37.4768 111.441 34.2416 111.1 28.9632H114.54Z" fill="#CDB9F9"/>
<path d="M29.9515 32.4751C29.9515 32.5159 29.9515 32.5575 29.9515 32.5982C29.9486 32.8066 29.9398 33.015 29.9263 33.2195C29.9175 33.3397 29.9069 33.4599 29.8943 33.581C29.6326 36.0283 28.5044 38.2914 26.693 39.9826C24.7837 41.7679 22.2928 42.7507 19.6779 42.7507C17.063 42.7507 14.5721 41.7679 12.6628 39.9826C11.0849 38.5075 10.0246 36.5991 9.60685 34.5114C9.91215 34.5386 10.2213 34.5531 10.5334 34.5531C11.0258 34.5531 11.5094 34.5182 11.9833 34.4504C12.3594 35.9197 13.1551 37.2591 14.291 38.3088C15.7642 39.6696 17.6765 40.4197 19.6779 40.4197C21.6793 40.4197 23.5925 39.6696 25.0647 38.3088C26.5302 36.9548 27.4276 35.123 27.5934 33.1487C27.6099 32.9665 27.6176 32.7795 27.6205 32.5895C27.6205 32.5517 27.6205 32.5139 27.6205 32.4751C27.6205 32.2338 27.6089 31.9857 27.5876 31.7405C27.3375 28.9259 25.5261 26.4002 22.9557 25.2361C22.0922 24.8446 21.1482 24.6352 20.2071 24.5403C18.668 24.3832 17.2219 24.359 15.7662 23.76C14.0293 23.0457 12.5193 21.8652 11.4008 20.3475C10.3473 18.9198 9.68729 17.2509 9.476 15.4966C9.45759 15.3502 9.44402 15.2049 9.43239 15.0575C9.41204 14.7949 9.40234 14.5254 9.40234 14.257C9.40234 14.2172 9.40234 14.1775 9.40234 14.1378C9.40428 13.9284 9.41301 13.7191 9.42754 13.5126C9.43627 13.3915 9.4479 13.2713 9.4605 13.1501C9.72121 10.7039 10.8494 8.44173 12.6598 6.7495C14.4529 5.07471 16.7586 4.1055 19.1952 3.99308C19.3551 3.98532 19.516 3.98145 19.6769 3.98145C22.2918 3.98145 24.7827 4.96422 26.692 6.7495C28.2728 8.22657 29.3321 10.1359 29.7499 12.2255C29.4446 12.1974 29.1344 12.1829 28.8223 12.1829C28.33 12.1829 27.8473 12.2178 27.3743 12.2856C26.9983 10.8153 26.2026 9.47394 25.0647 8.42332C23.5925 7.06255 21.6793 6.31239 19.6779 6.31239C17.6765 6.31239 15.7642 7.06255 14.291 8.42332C12.8265 9.7773 11.9291 11.6101 11.7624 13.5834C11.7459 13.7666 11.7381 13.9555 11.7352 14.1465C11.7352 14.1833 11.7352 14.2201 11.7352 14.257C11.7352 14.4993 11.7469 14.7474 11.7691 14.9916C12.1084 18.6795 14.9501 21.6268 18.5895 22.126C19.2156 22.2122 19.8611 22.2112 20.4959 22.249C21.1307 22.2868 21.7403 22.3876 22.348 22.5505C22.7706 22.6639 23.1864 22.8044 23.5906 22.9711C23.6807 23.0079 23.7699 23.0457 23.859 23.0855C25.4824 23.8085 26.8946 24.9444 27.9549 26.3827C29.0084 27.8113 29.6694 29.4793 29.8788 31.2336C29.8982 31.3799 29.9117 31.5253 29.9234 31.6726C29.9447 31.9363 29.9544 32.2067 29.9544 32.4732L29.9515 32.4751Z" fill="#CDB9F9" stroke="#CDB9F9" stroke-width="0.605769"/>
<path d="M39.071 23.3658C39.071 25.9808 38.0882 28.4716 36.3029 30.381C34.8259 31.9608 32.9165 33.0201 30.8279 33.4378C30.855 33.1325 30.8696 32.8234 30.8696 32.5113C30.8696 32.0189 30.8347 31.5353 30.7668 31.0623C32.2381 30.6872 33.5785 29.8905 34.6291 28.7537C35.9899 27.2805 36.7401 25.3682 36.7401 23.3668C36.7401 21.3654 35.9899 19.4532 34.6291 17.98C33.2751 16.5155 31.4433 15.617 29.4691 15.4513C29.2859 15.4348 29.0979 15.4271 28.9069 15.4242C28.8701 15.4242 28.8333 15.4242 28.7964 15.4242C28.5541 15.4242 28.306 15.4358 28.0608 15.4581C25.9237 15.6558 23.9252 16.7326 22.5858 18.4103C21.9199 19.2438 21.4305 20.2043 21.1523 21.2326C20.6086 23.2466 20.8955 25.3043 20.0804 27.2785C19.3661 29.0154 18.1856 30.5254 16.6678 31.6438C15.2392 32.6974 13.5712 33.3574 11.8169 33.5687C11.6715 33.5871 11.5261 33.6007 11.3788 33.6123C11.1142 33.6336 10.8448 33.6433 10.5773 33.6433C10.5366 33.6433 10.4949 33.6433 10.4542 33.6433C10.2458 33.6404 10.0374 33.6317 9.83294 33.6171C9.71179 33.6084 9.59161 33.5978 9.47143 33.5852C7.02515 33.3235 4.76205 32.1953 3.06982 30.3848C1.28551 28.4716 0.302734 25.9808 0.302734 23.3658C0.302734 20.7509 1.28551 18.2601 3.07079 16.3507C4.52072 14.799 6.38935 13.7494 8.43438 13.3152C8.47024 13.3074 8.5061 13.2997 8.54293 13.2939C8.51579 13.5992 8.50125 13.9083 8.50125 14.2204C8.50125 14.7128 8.53614 15.1964 8.60399 15.6694C7.13467 16.0464 5.79523 16.8421 4.74655 17.978C3.38578 19.4503 2.63561 21.3635 2.63561 23.3649C2.63561 25.3663 3.38578 27.2785 4.74655 28.7517C6.09956 30.2162 7.93233 31.1147 9.9066 31.2804C10.0888 31.2969 10.2749 31.3046 10.4649 31.3075C10.5027 31.3075 10.5405 31.3075 10.5792 31.3075C10.8215 31.3075 11.0696 31.2959 11.3149 31.2736C13.3473 31.0856 15.2566 30.1038 16.5922 28.5598C18.8718 25.9226 18.047 22.4751 19.2943 19.4532C20.0096 17.7154 21.1901 16.2063 22.7079 15.0879C24.1355 14.0343 25.8045 13.3743 27.5578 13.163C27.7041 13.1446 27.8495 13.131 27.9968 13.1194C28.2595 13.0981 28.5299 13.0884 28.7984 13.0884C28.8381 13.0884 28.8778 13.0884 28.9176 13.0884C29.1269 13.0903 29.3363 13.1 29.5418 13.1145C29.6619 13.1233 29.7821 13.1339 29.9033 13.1465C32.3495 13.4082 34.6126 14.5364 36.3039 16.3469C38.0892 18.2562 39.072 20.747 39.072 23.362L39.071 23.3658Z" fill="#CDB9F9" stroke="#CDB9F9" stroke-width="0.605769"/>
</svg>
