<svg width="99" height="25" viewBox="0 0 99 25" fill="none" xmlns="http://www.w3.org/2000/svg">
<path d="M90.646 18.2686V9.7229H92.3772V13.3899H92.2198C92.2198 12.519 92.3352 11.795 92.5661 11.2179C92.7968 10.6304 93.1379 10.1898 93.589 9.89607C94.0506 9.6022 94.6224 9.45532 95.3045 9.45532H95.3989C96.4166 9.45532 97.1878 9.78587 97.7124 10.4469C98.237 11.0974 98.4994 12.0731 98.4994 13.3742V18.2686H96.3116V13.1853C96.3116 12.6607 96.1596 12.2358 95.8553 11.9104C95.5616 11.5853 95.1523 11.4226 94.6277 11.4226C94.0926 11.4226 93.6572 11.5905 93.3214 11.9262C92.9962 12.2515 92.8335 12.6922 92.8335 13.2482V18.2686H90.646Z" fill="white"/>
<path d="M84.0722 18.5677C83.3168 18.5677 82.6506 18.447 82.0735 18.2057C81.4965 17.9644 81.0084 17.6392 80.6098 17.23C80.2111 16.8102 79.9068 16.3381 79.6971 15.8135C79.4976 15.289 79.3979 14.7434 79.3979 14.1768V13.8462C79.3979 13.2587 79.5029 12.7026 79.7128 12.178C79.933 11.6429 80.2426 11.1708 80.6413 10.7615C81.0504 10.3419 81.5437 10.0167 82.1207 9.78581C82.6978 9.54442 83.3483 9.42383 84.0722 9.42383C84.7961 9.42383 85.4467 9.54442 86.0237 9.78581C86.6008 10.0167 87.0886 10.3419 87.4875 10.7615C87.8966 11.1708 88.206 11.6429 88.4159 12.178C88.6258 12.7026 88.7308 13.2587 88.7308 13.8462V14.1768C88.7308 14.7434 88.6258 15.289 88.4159 15.8135C88.2165 16.3381 87.9176 16.8102 87.5189 17.23C87.1201 17.6392 86.6323 17.9644 86.0552 18.2057C85.4782 18.447 84.8171 18.5677 84.0722 18.5677ZM84.0722 16.6948C84.6072 16.6948 85.0585 16.5795 85.4257 16.3486C85.7928 16.1072 86.071 15.7873 86.2599 15.3887C86.4486 14.9793 86.5431 14.5177 86.5431 14.0036C86.5431 13.4791 86.4434 13.0174 86.2441 12.6186C86.0552 12.2095 85.7718 11.8894 85.3942 11.6587C85.027 11.4173 84.5864 11.2966 84.0722 11.2966C83.5581 11.2966 83.1122 11.4173 82.7345 11.6587C82.3672 11.8894 82.084 12.2095 81.8846 12.6186C81.6852 13.0174 81.5857 13.4791 81.5857 14.0036C81.5857 14.5177 81.6799 14.9793 81.8689 15.3887C82.0683 15.7873 82.3515 16.1072 82.7188 16.3486C83.086 16.5795 83.5371 16.6948 84.0722 16.6948Z" fill="white"/>
<path d="M75.2557 18.2688V9.72288H77.4432V18.2688H75.2557ZM74.0596 11.3598V9.72288H77.4432V11.3598H74.0596ZM76.0582 8.69995C75.6281 8.69995 75.3081 8.58978 75.0982 8.36945C74.8988 8.13863 74.7991 7.85533 74.7991 7.51959C74.7991 7.16286 74.8988 6.87433 75.0982 6.65398C75.3081 6.43365 75.6281 6.32349 76.0582 6.32349C76.4885 6.32349 76.8032 6.43365 77.0026 6.65398C77.2018 6.87433 77.3015 7.16286 77.3015 7.51959C77.3015 7.85533 77.2018 8.13863 77.0026 8.36945C76.8032 8.58978 76.4885 8.69995 76.0582 8.69995Z" fill="white"/>
<path d="M71.7832 18.3788C70.9962 18.3788 70.3457 18.2793 69.8316 18.0799C69.328 17.8699 68.9502 17.5238 68.6985 17.0412C68.4466 16.5479 68.3206 15.8871 68.3206 15.0581L68.3364 7.31494H70.3824L70.3667 15.1998C70.3667 15.6194 70.4769 15.9446 70.6971 16.1755C70.928 16.3959 71.2533 16.5061 71.673 16.5061H73.0108V18.3788H71.7832ZM66.9673 11.3281V9.72289H73.0108V11.3281H66.9673Z" fill="white"/>
<path d="M57.8633 18.2686V9.7229H59.5945V13.3899H59.437C59.437 12.519 59.5525 11.795 59.7834 11.2179C60.0141 10.6304 60.3552 10.1898 60.8063 9.89607C61.2679 9.6022 61.8397 9.45532 62.5217 9.45532H62.6162C63.6339 9.45532 64.4051 9.78587 64.9297 10.4469C65.4543 11.0974 65.7167 12.0731 65.7167 13.3742V18.2686H63.5289V13.1853C63.5289 12.6607 63.3769 12.2358 63.0726 11.9104C62.7789 11.5853 62.3696 11.4226 61.845 11.4226C61.3099 11.4226 60.8745 11.5905 60.5387 11.9262C60.2135 12.2515 60.0508 12.6922 60.0508 13.2482V18.2686H57.8633Z" fill="white"/>
<path d="M51.9279 18.5677C51.1935 18.5677 50.5484 18.4417 49.9923 18.19C49.4465 17.9381 48.9902 17.6024 48.623 17.1828C48.2662 16.7525 47.9935 16.2752 47.8046 15.7506C47.6261 15.226 47.5371 14.6909 47.5371 14.1453V13.8462C47.5371 13.2797 47.6261 12.7341 47.8046 12.2095C47.9935 11.6744 48.2662 11.2023 48.623 10.793C48.9902 10.3734 49.4413 10.0429 49.9765 9.80155C50.5116 9.54967 51.1307 9.42383 51.8335 9.42383C52.7569 9.42383 53.5281 9.62838 54.1472 10.0377C54.7765 10.4363 55.2488 10.9662 55.5635 11.6272C55.8783 12.2777 56.0356 12.9807 56.0356 13.736V14.523H48.4656V13.1852H54.6665L53.9897 13.8462C53.9897 13.3006 53.911 12.8338 53.7536 12.4456C53.5962 12.0573 53.3549 11.7584 53.0296 11.5485C52.7149 11.3386 52.3163 11.2338 51.8335 11.2338C51.3509 11.2338 50.9417 11.3438 50.6059 11.5642C50.2702 11.7846 50.0131 12.1045 49.8349 12.5242C49.6669 12.9335 49.583 13.4266 49.583 14.0036C49.583 14.5387 49.6669 15.0161 49.8349 15.4359C50.0026 15.845 50.2597 16.1702 50.6059 16.4116C50.9522 16.6423 51.3929 16.7578 51.9279 16.7578C52.463 16.7578 52.8986 16.6528 53.2342 16.4431C53.5699 16.2227 53.7851 15.9552 53.8795 15.6404H55.8941C55.7681 16.2279 55.5267 16.742 55.1701 17.1828C54.8132 17.6234 54.3569 17.9644 53.8008 18.2057C53.2552 18.447 52.631 18.5677 51.9279 18.5677Z" fill="white"/>
<path d="M45.0864 18.3788C44.2994 18.3788 43.6489 18.2793 43.1348 18.0799C42.6312 17.8699 42.2534 17.5238 42.0017 17.0412C41.7498 16.5479 41.6239 15.8871 41.6239 15.0581L41.6396 7.31494H43.6856L43.6699 15.1998C43.6699 15.6194 43.7801 15.9446 44.0003 16.1755C44.2312 16.3959 44.5564 16.5061 44.9762 16.5061H46.314V18.3788H45.0864ZM40.2705 11.3281V9.72289H46.314V11.3281H40.2705Z" fill="white"/>
<path d="M31.167 18.2686V9.7229H32.8982V13.3899H32.7407C32.7407 12.519 32.8562 11.795 33.0871 11.2179C33.3178 10.6304 33.6589 10.1898 34.11 9.89607C34.5716 9.6022 35.1434 9.45532 35.8255 9.45532H35.9199C36.9376 9.45532 37.7088 9.78587 38.2334 10.4469C38.758 11.0974 39.0204 12.0731 39.0204 13.3742V18.2686H36.8326V13.1853C36.8326 12.6607 36.6805 12.2358 36.3763 11.9104C36.0824 11.5853 35.6733 11.4226 35.1487 11.4226C34.6136 11.4226 34.1782 11.5905 33.8424 11.9262C33.5172 12.2515 33.3545 12.6922 33.3545 13.2482V18.2686H31.167Z" fill="white"/>
<path d="M26.2383 18.2689V6.78003H28.4731V18.2689H26.2383Z" fill="white"/>
<path d="M3.24948 8.55298L1.21093 9.96736C-0.353743 11.0529 -0.412357 13.3465 1.09482 14.5106L3.24948 16.1747V8.55298Z" fill="#CDB9F9"/>
<path d="M3.23975 3.48161C3.23975 3.21562 3.45525 3 3.7213 3H7.63478C7.69618 3 7.74585 3.0498 7.74585 3.11123C7.74585 4.68087 6.95154 6.14385 5.63492 6.99859L3.23975 8.55375V3.48161Z" fill="#CDB9F9"/>
<path d="M3.23975 21.2411C3.23975 21.507 3.45525 21.7226 3.7213 21.7226H7.63478C7.69618 21.7226 7.74585 21.6728 7.74585 21.6114C7.74585 20.0418 6.95154 18.5788 5.63492 17.7242L3.23975 16.1689V21.2411Z" fill="#CDB9F9"/>
<path d="M17.7407 8.55298L19.7792 9.96736C21.3439 11.0529 21.4025 13.3465 19.8954 14.5106L17.7407 16.1747V8.55298Z" fill="#CDB9F9"/>
<path d="M17.7512 3.48161C17.7512 3.21562 17.5357 3 17.2697 3H13.3562C13.2948 3 13.2451 3.0498 13.2451 3.11123C13.2451 4.68087 14.0394 6.14385 15.3561 6.99859L17.7512 8.55375V3.48161Z" fill="#CDB9F9"/>
<path d="M17.7512 21.2411C17.7512 21.507 17.5357 21.7226 17.2697 21.7226H13.3562C13.2948 21.7226 13.2451 21.6728 13.2451 21.6114C13.2451 20.0418 14.0394 18.5788 15.3561 17.7242L17.7512 16.1689V21.2411Z" fill="#CDB9F9"/>
<path d="M10.0809 9.37422L7.49265 11.9624C7.26695 12.1881 7.26695 12.5541 7.49265 12.7798L10.0809 15.368C10.3066 15.5937 10.6725 15.5937 10.8982 15.368L13.4864 12.7798C13.7121 12.5541 13.7121 12.1881 13.4864 11.9624L10.8982 9.37423C10.6725 9.14853 10.3066 9.14853 10.0809 9.37422Z" fill="#CDB9F9"/>
</svg>
